<svg xmlns="http://www.w3.org/2000/svg" viewBox="0 0 720 900" role="img" aria-label="Generated corporate business portrait AI headshot">
  <rect width="720" height="900" fill="#f1f5f9"/>
  <rect x="80" y="96" width="560" height="690" rx="38" fill="#ffffff" opacity=".75"/>
  <circle cx="360" cy="292" r="132" fill="#c98c63"/>
  <path d="M242 239c34-106 126-139 217-89 42 23 58 75 37 128-91-49-167-52-254-39z" fill="#1e1b4b"/>
  <path d="M145 900c20-202 94-324 215-324s195 122 215 324H145z" fill="#111827"/>
  <path d="M280 572h160l-80 116-80-116z" fill="#ffffff"/>
  <path d="M226 544c68 58 200 58 268 0 55 37 88 102 103 186H123c15-84 48-149 103-186z" fill="#4338ca"/>
  <circle cx="318" cy="308" r="9" fill="#111827"/>
  <circle cx="406" cy="308" r="9" fill="#111827"/>
  <path d="M327 372c22 14 46 14 68 0" fill="none" stroke="#7c2d12" stroke-width="9" stroke-linecap="round"/>
  <text x="360" y="820" text-anchor="middle" fill="#4338ca" font-family="Arial" font-size="34" font-weight="700">Business Portrait</text>
</svg>
