<svg xmlns="http://www.w3.org/2000/svg" viewBox="0 0 720 900" role="img" aria-label="Generated high likeness AI portrait with realistic face detail">
  <rect width="720" height="900" fill="#f8fafc"/>
  <circle cx="360" cy="289" r="132" fill="#f0bd91"/>
  <path d="M238 238c29-111 114-156 216-107 56 27 75 80 47 137-84-44-173-50-263-30z" fill="#0e7490"/>
  <path d="M150 900c20-201 94-320 210-320s190 119 210 320H150z" fill="#0f172a"/>
  <path d="M282 570h156l-78 112-78-112z" fill="#ffffff"/>
  <path d="M231 544c66 58 192 58 258 0 62 37 99 100 114 183H117c15-83 52-146 114-183z" fill="#0e7490"/>
  <circle cx="316" cy="304" r="9" fill="#111827"/>
  <circle cx="407" cy="304" r="9" fill="#111827"/>
  <path d="M323 367c28 18 56 18 84 0" fill="none" stroke="#7c2d12" stroke-width="9" stroke-linecap="round"/>
  <text x="360" y="820" text-anchor="middle" fill="#0e7490" font-family="Arial" font-size="34" font-weight="700">High Likeness</text>
</svg>
