<svg xmlns="http://www.w3.org/2000/svg" viewBox="0 0 720 900" role="img" aria-label="Generated professional LinkedIn AI headshot with clean background">
  <defs><linearGradient id="g" x1="0" x2="1" y1="0" y2="1"><stop stop-color="#f8fafc"/><stop offset="1" stop-color="#dbeafe"/></linearGradient></defs>
  <rect width="720" height="900" fill="url(#g)"/>
  <circle cx="360" cy="288" r="136" fill="#f1b88a"/>
  <path d="M226 250c24-112 110-166 218-123 58 23 81 80 54 136-60-43-164-47-272-13z" fill="#1e293b"/>
  <path d="M215 900V676c13-112 71-181 145-181s132 69 145 181v224H215z" fill="#0f172a"/>
  <path d="M285 538h150l-75 116-75-116z" fill="#f8fafc"/>
  <path d="M260 532c53 49 147 49 200 0 72 35 116 98 132 190H128c16-92 60-155 132-190z" fill="#1d4ed8"/>
  <circle cx="316" cy="307" r="10" fill="#111827"/>
  <circle cx="406" cy="307" r="10" fill="#111827"/>
  <path d="M326 368c25 18 53 18 78 0" fill="none" stroke="#7f1d1d" stroke-width="10" stroke-linecap="round"/>
  <text x="360" y="820" text-anchor="middle" fill="#2563eb" font-family="Arial" font-size="36" font-weight="700">LinkedIn AI Headshot</text>
</svg>
