<svg xmlns="http://www.w3.org/2000/svg" viewBox="0 0 720 900" role="img" aria-label="Original casual selfie before AI headshots for LinkedIn generation">
  <rect width="720" height="900" fill="#e0f2fe"/>
  <rect x="0" y="570" width="720" height="330" fill="#f8fafc"/>
  <circle cx="360" cy="298" r="132" fill="#f4bf96"/>
  <path d="M230 260c23-106 95-150 194-119 68 21 98 74 70 134-56-42-148-48-264-15z" fill="#334155"/>
  <path d="M245 678c18-118 72-188 115-188s97 70 115 188v222H245V678z" fill="#38bdf8"/>
  <path d="M264 528c41 44 151 44 192 0 70 34 113 95 128 182H136c15-87 58-148 128-182z" fill="#0ea5e9"/>
  <circle cx="316" cy="314" r="11" fill="#1e293b"/>
  <circle cx="406" cy="314" r="11" fill="#1e293b"/>
  <path d="M324 372c27 20 55 20 82 0" fill="none" stroke="#7f1d1d" stroke-width="12" stroke-linecap="round"/>
  <text x="360" y="820" text-anchor="middle" fill="#64748b" font-family="Arial" font-size="36" font-weight="700">Before</text>
</svg>
