<svg xmlns="http://www.w3.org/2000/svg" viewBox="0 0 720 900" role="img" aria-label="Generated resume-ready AI headshot with neutral background">
  <rect width="720" height="900" fill="#f8fafc"/>
  <rect x="95" y="70" width="530" height="760" rx="36" fill="#ffffff" stroke="#e2e8f0" stroke-width="8"/>
  <circle cx="360" cy="292" r="130" fill="#dca778"/>
  <path d="M248 227c44-82 143-102 215-29 24 24 31 58 20 94-74-36-151-37-235-65z" fill="#374151"/>
  <path d="M186 900c17-191 82-306 174-306s157 115 174 306H186z" fill="#334155"/>
  <path d="M292 586h136l-68 92-68-92z" fill="#ffffff"/>
  <circle cx="318" cy="308" r="9" fill="#111827"/>
  <circle cx="405" cy="308" r="9" fill="#111827"/>
  <path d="M326 371c22 15 48 15 70 0" fill="none" stroke="#7c2d12" stroke-width="9" stroke-linecap="round"/>
  <text x="360" y="820" text-anchor="middle" fill="#334155" font-family="Arial" font-size="34" font-weight="700">Resume Photo</text>
</svg>
